# xmcd
#
# Track frame offsets: 
#        150
#        44975
#        78498
#        104718
#        122828
#        143823
#        187085
#        217848
#        229833
#
# Disc length: 3297 seconds
#
# Revision: 0
# Processed by: cddbd v1.5.2PL0 Copyright (c) Steve Scherf et al.
# Submitted via: ExactAudioCopy v0.99pb4
#
DISCID=890cdf09
DTITLE=Monchhichi - Resan till Chhimi-Chikki
DYEAR=1981
DGENRE=Speech
TTITLE0=01-Kom snart och hälsa på
TTITLE1=02-Jag hör, ser och vet allt
TTITLE2=03-Bäst att sätta på ett plåster
TTITLE3=04-Ni skriver väl ett brev
TTITLE4=05-Jag ska vara så snäll
TTITLE5=06-Nu ska vi flyga
TTITLE6=07-Kan man röra vid månen
TTITLE7=08-Fina Krinolina
TTITLE8=09-Här stannar vi ett bra tag
EXTD=
EXTT0=
EXTT1=
EXTT2=
EXTT3=
EXTT4=
EXTT5=
EXTT6=
EXTT7=
EXTT8=
PLAYORDER=
